<svg width="49" height="48" viewBox="0 0 49 48" fill="none" xmlns="http://www.w3.org/2000/svg">
<path d="M25.0001 0C11.7626 0 0.997559 10.7675 0.997559 24C0.997559 37.2325 11.7626 48 25.0001 48C38.2326 48 49.0001 37.2325 49.0001 24C49.0001 10.7675 38.2326 0 25.0001 0V0ZM45.4701 24C45.4701 28.6825 43.8801 33 41.2301 36.45C40.4801 35.865 39.6826 34.2825 40.4326 32.6425C41.1901 30.9925 41.3876 27.1725 41.2126 25.685C41.0476 24.2 40.2751 20.6225 38.1776 20.5875C36.0826 20.5575 34.6451 19.865 33.4001 17.38C30.8176 12.21 38.2476 11.2175 35.6651 8.3575C34.9426 7.5525 31.2076 11.6625 30.6601 6.185C30.6251 5.7925 30.9976 5.205 31.5001 4.595C39.6101 7.32 45.4701 14.9875 45.4701 24V24ZM22.1876 3.7325C21.6976 4.6875 20.4051 5.075 19.6201 5.7925C17.9101 7.34 17.1751 7.125 16.2551 8.61C15.3276 10.095 12.3376 12.2325 12.3376 13.3075C12.3376 14.3825 13.8476 15.6475 14.6026 15.4025C15.3576 15.1525 17.3501 15.1675 18.5201 15.5775C19.6926 15.9925 28.3051 16.4075 25.5601 23.6875C24.6901 26.0025 20.8776 25.6125 19.8626 29.445C19.7101 30.0075 19.1826 32.41 19.1501 33.195C19.0876 34.41 20.0101 38.99 18.8376 38.99C17.6601 38.99 14.4926 34.8925 14.4926 34.15C14.4926 33.4075 13.6726 30.805 13.6726 28.575C13.6726 26.3475 9.87756 26.3825 9.87756 23.42C9.87756 20.75 11.9351 19.42 11.4726 18.1375C11.0201 16.8625 7.40506 16.82 5.89756 16.6625C7.21567 13.2521 9.42054 10.2555 12.2843 7.98239C15.1481 5.70928 18.567 4.24211 22.1876 3.7325V3.7325ZM18.5601 43.425C19.7901 42.775 19.9151 41.935 21.0301 41.8925C22.3051 41.835 23.3426 41.395 24.7801 41.0775C26.0551 40.8 28.3376 39.505 30.3451 39.34C32.0401 39.2025 35.3826 39.4275 36.2826 41.0625C33.7018 42.7763 30.7647 43.8797 27.694 44.289C24.6232 44.6984 21.4996 44.4029 18.5601 43.425V43.425Z" fill="black"/>
</svg>
