<svg width="8" height="7" viewBox="0 0 8 7" fill="none" xmlns="http://www.w3.org/2000/svg">
<path d="M7.80645 1.43451C7.68232 1.15379 7.50335 0.899411 7.27954 0.685602C7.05556 0.471155 6.79148 0.300737 6.50167 0.183616C6.20115 0.0616856 5.87883 -0.000725199 5.55341 6.35747e-06C5.09688 6.35747e-06 4.65146 0.122111 4.26438 0.352753C4.17177 0.407927 4.0838 0.468527 4.00046 0.534554C3.91712 0.468527 3.82914 0.407927 3.73654 0.352753C3.34946 0.122111 2.90404 6.35747e-06 2.4475 6.35747e-06C2.11876 6.35747e-06 1.80021 0.061511 1.49925 0.183616C1.20847 0.301198 0.946405 0.470336 0.721379 0.685602C0.497276 0.89917 0.318257 1.15361 0.194467 1.43451C0.0657483 1.72666 0 2.03689 0 2.35618C0 2.65737 0.0629702 2.97122 0.187985 3.2905C0.292626 3.55732 0.442643 3.8341 0.634332 4.11358C0.93807 4.55587 1.35571 5.01715 1.87429 5.48477C2.73365 6.25991 3.58467 6.79536 3.62079 6.81707L3.84025 6.95455C3.93749 7.01515 4.0625 7.01515 4.15974 6.95455L4.37921 6.81707C4.41532 6.79446 5.26542 6.25991 6.1257 5.48477C6.64428 5.01715 7.06192 4.55587 7.36566 4.11358C7.55735 3.8341 7.70829 3.55732 7.81201 3.2905C7.93702 2.97122 7.99999 2.65737 7.99999 2.35618C8.00092 2.03689 7.93517 1.72666 7.80645 1.43451Z" fill="black"/>
</svg>
