<svg width="30" height="30" viewBox="0 0 30 30" fill="none" xmlns="http://www.w3.org/2000/svg">
<path d="M10.5175 13.535H17.57C17.9015 13.535 18.2194 13.6667 18.4539 13.9011C18.6883 14.1355 18.82 14.4535 18.82 14.785C18.82 15.1165 18.6883 15.4345 18.4539 15.6689C18.2194 15.9033 17.9015 16.035 17.57 16.035H10.5175L11.92 17.4375C12.036 17.5536 12.1281 17.6915 12.1908 17.8432C12.2536 17.9949 12.2859 18.1575 12.2858 18.3217C12.2858 18.4859 12.2534 18.6484 12.1905 18.8001C12.1276 18.9518 12.0355 19.0896 11.9193 19.2056C11.8032 19.3217 11.6653 19.4137 11.5136 19.4765C11.3619 19.5393 11.1993 19.5716 11.0352 19.5715C10.871 19.5714 10.7084 19.539 10.5567 19.4762C10.4051 19.4133 10.2673 19.3211 10.1512 19.205L6.61622 15.67C6.49955 15.5542 6.40695 15.4164 6.34377 15.2646C6.28058 15.1128 6.24805 14.95 6.24805 14.7856C6.24805 14.6212 6.28058 14.4584 6.34377 14.3066C6.40695 14.1549 6.49955 14.0171 6.61622 13.9013L10.15 10.3663C10.266 10.2501 10.4038 10.158 10.5555 10.0951C10.7072 10.0322 10.8697 9.9998 11.0339 9.99975C11.1981 9.99969 11.3607 10.032 11.5124 10.0947C11.6641 10.1575 11.802 10.2496 11.9181 10.3656C12.0342 10.4817 12.1264 10.6195 12.1893 10.7711C12.2521 10.9228 12.2845 11.0854 12.2846 11.2496C12.2847 11.4137 12.2524 11.5763 12.1896 11.728C12.1268 11.8798 12.0348 12.0176 11.9187 12.1337L10.5175 13.535ZM22.5 3.75C22.8315 3.75 23.1494 3.8817 23.3839 4.11612C23.6183 4.35054 23.75 4.66848 23.75 5V25C23.75 25.3315 23.6183 25.6495 23.3839 25.8839C23.1494 26.1183 22.8315 26.25 22.5 26.25C22.1684 26.25 21.8505 26.1183 21.6161 25.8839C21.3817 25.6495 21.25 25.3315 21.25 25V5C21.25 4.66848 21.3817 4.35054 21.6161 4.11612C21.8505 3.8817 22.1684 3.75 22.5 3.75Z" fill="#0F4C75"/>
</svg>
