<svg width="30" height="30" viewBox="0 0 30 30" fill="none" xmlns="http://www.w3.org/2000/svg">
<path d="M15 11.25C15.663 11.25 16.2989 10.9866 16.7678 10.5178C17.2366 10.0489 17.5 9.41304 17.5 8.75C17.5 8.08696 17.2366 7.45107 16.7678 6.98223C16.2989 6.51339 15.663 6.25 15 6.25C14.337 6.25 13.7011 6.51339 13.2322 6.98223C12.7634 7.45107 12.5 8.08696 12.5 8.75C12.5 9.41304 12.7634 10.0489 13.2322 10.5178C13.7011 10.9866 14.337 11.25 15 11.25Z" fill="#0F4C75"/>
<path d="M17.5 15C17.5 15.663 17.2366 16.2989 16.7678 16.7678C16.2989 17.2366 15.663 17.5 15 17.5C14.337 17.5 13.7011 17.2366 13.2322 16.7678C12.7634 16.2989 12.5 15.663 12.5 15C12.5 14.337 12.7634 13.7011 13.2322 13.2322C13.7011 12.7634 14.337 12.5 15 12.5C15.663 12.5 16.2989 12.7634 16.7678 13.2322C17.2366 13.7011 17.5 14.337 17.5 15V15Z" fill="#0F4C75"/>
<path d="M15 23.75C15.663 23.75 16.2989 23.4866 16.7678 23.0178C17.2366 22.5489 17.5 21.913 17.5 21.25C17.5 20.587 17.2366 19.9511 16.7678 19.4822C16.2989 19.0134 15.663 18.75 15 18.75C14.337 18.75 13.7011 19.0134 13.2322 19.4822C12.7634 19.9511 12.5 20.587 12.5 21.25C12.5 21.913 12.7634 22.5489 13.2322 23.0178C13.7011 23.4866 14.337 23.75 15 23.75Z" fill="#0F4C75"/>
<path fill-rule="evenodd" clip-rule="evenodd" d="M30 15C30 23.2837 23.2837 30 15 30C6.71625 30 0 23.2837 0 15C0 6.71625 6.71625 0 15 0C23.2837 0 30 6.71625 30 15ZM27.5 15C27.5 21.9037 21.9037 27.5 15 27.5C8.09625 27.5 2.5 21.9037 2.5 15C2.5 8.09625 8.09625 2.5 15 2.5C21.9037 2.5 27.5 8.09625 27.5 15Z" fill="#0F4C75"/>
</svg>
