<svg width="30" height="30" viewBox="0 0 30 30" fill="none" xmlns="http://www.w3.org/2000/svg">
<g clip-path="url(#clip0)">
<path d="M7.5 15C7.5 15.3315 7.3683 15.6495 7.13388 15.8839C6.89946 16.1183 6.58152 16.25 6.25 16.25C5.91848 16.25 5.60054 16.1183 5.36612 15.8839C5.1317 15.6495 5 15.3315 5 15C5 14.6685 5.1317 14.3505 5.36612 14.1161C5.60054 13.8817 5.91848 13.75 6.25 13.75C6.58152 13.75 6.89946 13.8817 7.13388 14.1161C7.3683 14.3505 7.5 14.6685 7.5 15V15Z" fill="black"/>
<path d="M11.25 16.25C11.5815 16.25 11.8995 16.1183 12.1339 15.8839C12.3683 15.6495 12.5 15.3315 12.5 15C12.5 14.6685 12.3683 14.3505 12.1339 14.1161C11.8995 13.8817 11.5815 13.75 11.25 13.75C10.9185 13.75 10.6005 13.8817 10.3661 14.1161C10.1317 14.3505 10 14.6685 10 15C10 15.3315 10.1317 15.6495 10.3661 15.8839C10.6005 16.1183 10.9185 16.25 11.25 16.25V16.25Z" fill="black"/>
<path d="M17.5 15C17.5 15.3315 17.3683 15.6495 17.1339 15.8839C16.8995 16.1183 16.5815 16.25 16.25 16.25C15.9185 16.25 15.6005 16.1183 15.3661 15.8839C15.1317 15.6495 15 15.3315 15 15C15 14.6685 15.1317 14.3505 15.3661 14.1161C15.6005 13.8817 15.9185 13.75 16.25 13.75C16.5815 13.75 16.8995 13.8817 17.1339 14.1161C17.3683 14.3505 17.5 14.6685 17.5 15V15Z" fill="black"/>
<path d="M25 13.75H20V16.25H25V13.75Z" fill="black"/>
<path fill-rule="evenodd" clip-rule="evenodd" d="M2.5 7.5C1.83696 7.5 1.20107 7.76339 0.732233 8.23223C0.263392 8.70107 0 9.33696 0 10L0 20C0 20.663 0.263392 21.2989 0.732233 21.7678C1.20107 22.2366 1.83696 22.5 2.5 22.5H27.5C28.163 22.5 28.7989 22.2366 29.2678 21.7678C29.7366 21.2989 30 20.663 30 20V10C30 9.33696 29.7366 8.70107 29.2678 8.23223C28.7989 7.76339 28.163 7.5 27.5 7.5H2.5ZM27.5 10H2.5V20H27.5V10Z" fill="black"/>
</g>
<defs>
<clipPath id="clip0">
<rect width="30" height="30" fill="white"/>
</clipPath>
</defs>
</svg>
