<svg width="30" height="30" viewBox="0 0 30 30" fill="none" xmlns="http://www.w3.org/2000/svg">
<path d="M24.0349 23.415L26.2449 21.205L28.4537 23.415C28.8908 23.852 29.1885 24.4088 29.3092 25.015C29.4298 25.6212 29.368 26.2496 29.1315 26.8207C28.895 27.3918 28.4945 27.8799 27.9805 28.2233C27.4666 28.5667 26.8624 28.75 26.2443 28.75C25.6262 28.75 25.022 28.5667 24.508 28.2233C23.9941 27.8799 23.5936 27.3918 23.3571 26.8207C23.1206 26.2496 23.0588 25.6212 23.1794 25.015C23.3001 24.4088 23.5978 23.852 24.0349 23.415ZM11.0974 1.34998L25.2399 15.4912C25.3561 15.6073 25.4483 15.7452 25.5112 15.8969C25.5741 16.0487 25.6065 16.2113 25.6065 16.3756C25.6065 16.5399 25.5741 16.7025 25.5112 16.8543C25.4483 17.006 25.3561 17.1439 25.2399 17.26L14.6337 27.8662C14.3993 28.1006 14.0814 28.2322 13.7499 28.2322C13.4185 28.2322 13.1006 28.1006 12.8662 27.8662L2.25992 17.26C2.1437 17.1439 2.0515 17.006 1.98859 16.8543C1.92569 16.7025 1.89331 16.5399 1.89331 16.3756C1.89331 16.2113 1.92569 16.0487 1.98859 15.8969C2.0515 15.7452 2.1437 15.6073 2.25992 15.4912L11.9824 5.76872L9.32992 3.11748L11.0999 1.34998H11.0974ZM13.7499 7.53748L4.91117 16.375H22.5874L13.7499 7.53748Z" fill="black"/>
</svg>
