<svg width="25" height="28" viewBox="0 0 25 28" fill="none" xmlns="http://www.w3.org/2000/svg">
<path d="M12.5 28C13.3601 28.0011 14.1992 27.732 14.9007 27.2302C15.6021 26.7284 16.131 26.0188 16.4139 25.2H8.58611C8.86897 26.0188 9.39788 26.7284 10.0993 27.2302C10.8008 27.732 11.6399 28.0011 12.5 28ZM22.2222 17.6204V11.2C22.2222 6.6962 19.1875 2.9022 15.0764 1.7612C14.6694 0.728 13.675 0 12.5 0C11.325 0 10.3306 0.728 9.92361 1.7612C5.8125 2.9036 2.77778 6.6962 2.77778 11.2V17.6204L0.406946 20.0102C0.27772 20.14 0.175237 20.2943 0.105396 20.4641C0.0355557 20.634 -0.000263124 20.8161 1.4551e-06 21V22.4C1.4551e-06 22.7713 0.14633 23.1274 0.406797 23.3899C0.667265 23.6525 1.02053 23.8 1.38889 23.8H23.6111C23.9795 23.8 24.3327 23.6525 24.5932 23.3899C24.8537 23.1274 25 22.7713 25 22.4V21C25.0003 20.8161 24.9644 20.634 24.8946 20.4641C24.8248 20.2943 24.7223 20.14 24.5931 20.0102L22.2222 17.6204Z" fill="white"/>
</svg>
